<svg viewBox="0 0 200 200" fill="none" xmlns="http://www.w3.org/2000/svg">
  <g opacity="0.2" stroke="#fff" stroke-width="1.5">
    <ellipse cx="100" cy="120" rx="65" ry="18"/>
    <line x1="60" y1="115" x2="55" y2="95"/>
    <line x1="140" y1="115" x2="145" y2="95"/>
    <ellipse cx="100" cy="95" rx="45" ry="14"/>
    <line x1="72" y1="90" x2="68" y2="70"/>
    <line x1="128" y1="90" x2="132" y2="70"/>
    <ellipse cx="100" cy="70" rx="30" ry="10"/>
    <line x1="82" y1="65" x2="80" y2="50"/>
    <line x1="118" y1="65" x2="120" y2="50"/>
    <ellipse cx="100" cy="50" rx="18" ry="6"/>
  </g>
  <g opacity="0.15" fill="#fff">
    <rect x="93" y="20" width="14" height="25" rx="7"/>
    <circle cx="100" cy="55" r="4"/>
  </g>
  <g opacity="0.1" stroke="#fff" stroke-width="1">
    <line x1="35" y1="120" x2="25" y2="126"/>
    <line x1="165" y1="120" x2="175" y2="126"/>
    <line x1="35" y1="95" x2="25" y2="90"/>
    <line x1="165" y1="95" x2="175" y2="90"/>
  </g>
</svg>