<svg viewBox="0 0 200 200" fill="none" xmlns="http://www.w3.org/2000/svg">
  <g opacity="0.15">
    <rect x="30" y="50" width="140" height="100" rx="4" stroke="#fff" stroke-width="1.5"/>
    <line x1="50" y1="50" x2="50" y2="150" stroke="#fff" stroke-width="1"/>
    <line x1="80" y1="50" x2="80" y2="150" stroke="#fff" stroke-width="1"/>
    <line x1="110" y1="50" x2="110" y2="150" stroke="#fff" stroke-width="1"/>
    <line x1="140" y1="50" x2="140" y2="150" stroke="#fff" stroke-width="1"/>
  </g>
  <g opacity="0.2">
    <rect x="30" y="50" width="35" height="100" fill="#4a7a4a"/>
    <rect x="65" y="50" width="35" height="100" fill="#6a9a4a"/>
    <rect x="100" y="50" width="35" height="100" fill="#4a6a9a"/>
    <rect x="135" y="50" width="35" height="100" fill="#8a4a6a"/>
  </g>
  <g opacity="0.25" stroke="#fff" stroke-width="2">
    <path d="M50 100 Q65 80 80 90 Q95 100 110 85 Q125 70 140 95" fill="none"/>
    <path d="M50 130 Q65 110 80 120 Q95 130 110 115 Q125 100 140 125" fill="none"/>
  </g>
</svg>