<svg viewBox="0 0 400 300" fill="none" xmlns="http://www.w3.org/2000/svg">
  <g opacity="0.1" stroke="#fff" stroke-width="1">
    <circle cx="200" cy="150" r="100"/>
    <circle cx="200" cy="150" r="70"/>
    <circle cx="200" cy="150" r="40"/>
    <line x1="200" y1="50" x2="200" y2="20"/>
    <line x1="200" y1="250" x2="200" y2="280"/>
    <line x1="100" y1="150" x2="70" y2="150"/>
    <line x1="300" y1="150" x2="330" y2="150"/>
  </g>
  <g opacity="0.15" stroke="#fff" stroke-width="1.5">
    <line x1="145" y1="105" x2="255" y2="195"/>
    <line x1="255" y1="105" x2="145" y2="195"/>
    <rect x="170" y="120" width="60" height="60" rx="4"/>
  </g>
  <g opacity="0.08" fill="#fff">
    <circle cx="100" cy="80" r="2"/>
    <circle cx="120" cy="60" r="1.5"/>
    <circle cx="300" cy="90" r="2"/>
    <circle cx="320" cy="70" r="1.5"/>
    <circle cx="80" cy="220" r="1.5"/>
    <circle cx="140" cy="240" r="2"/>
  </g>
  <g opacity="0.12" stroke="#fff" stroke-width="1">
    <path d="M200 280 Q240 270 260 250" fill="none"/>
    <path d="M200 280 Q160 270 140 250" fill="none"/>
  </g>
</svg>